<?xml version="1.0" encoding="UTF-8" standalone="no"?>
<!-- Created with Inkscape (http://www.inkscape.org/) -->

<svg
   xmlns:dc="http://purl.org/dc/elements/1.1/"
   xmlns:cc="http://creativecommons.org/ns#"
   xmlns:rdf="http://www.w3.org/1999/02/22-rdf-syntax-ns#"
   xmlns:svg="http://www.w3.org/2000/svg"
   xmlns="http://www.w3.org/2000/svg"
   xmlns:sodipodi="http://sodipodi.sourceforge.net/DTD/sodipodi-0.dtd"
   xmlns:inkscape="http://www.inkscape.org/namespaces/inkscape"
   width="574.02783"
   height="333.66135"
   id="svg2"
   version="1.1"
   inkscape:version="0.48.3.1 r9886"
   sodipodi:docname="image_1_1.svg">
  <defs
     id="defs4" />
  <sodipodi:namedview
     id="base"
     pagecolor="#ffffff"
     bordercolor="#666666"
     borderopacity="1.0"
     inkscape:pageopacity="0.0"
     inkscape:pageshadow="2"
     inkscape:zoom="1.4"
     inkscape:cx="225.99278"
     inkscape:cy="180.01394"
     inkscape:document-units="px"
     inkscape:current-layer="layer1"
     showgrid="false"
     inkscape:window-width="1920"
     inkscape:window-height="1113"
     inkscape:window-x="0"
     inkscape:window-y="27"
     inkscape:window-maximized="1"
     fit-margin-top="2"
     fit-margin-left="2"
     fit-margin-right="2"
     fit-margin-bottom="2" />
  <metadata
     id="metadata7">
    <rdf:RDF>
      <cc:Work
         rdf:about="">
        <dc:format>image/svg+xml</dc:format>
        <dc:type
           rdf:resource="http://purl.org/dc/dcmitype/StillImage" />
        <dc:title></dc:title>
      </cc:Work>
    </rdf:RDF>
  </metadata>
  <g
     inkscape:label="Layer 1"
     inkscape:groupmode="layer"
     id="layer1"
     transform="translate(-88.78543,-75.66716)">
    <text
       xml:space="preserve"
       style="font-size:35.35638428px;font-style:normal;font-weight:normal;line-height:125%;letter-spacing:0px;word-spacing:0px;fill:#000000;fill-opacity:1;stroke:none;font-family:Bitstream Vera Sans"
       x="85.357948"
       y="286.21609"
       id="text2985"
       sodipodi:linespacing="125%"
       transform="scale(1.1775535,0.84921834)"><tspan
         sodipodi:role="line"
         id="tspan2987"
         x="85.357948"
         y="286.21609"
         style="font-size:18px;stroke:none"> 6.5           <tspan
   style="font-size:18px;fill:#b3b3b3;stroke:none"
   id="tspan3781">A A</tspan> B <tspan
   style="font-size:18px;fill:#b3b3b3;stroke:none"
   id="tspan3783">A</tspan> B <tspan
   style="font-size:18px;fill:#b3b3b3;stroke:none"
   id="tspan3825">A</tspan> B B B B B <tspan
   style="font-size:18px;fill:#b3b3b3;stroke:none"
   id="tspan3827">A</tspan> B B B <tspan
   style="font-size:18px;fill:#b3b3b3;stroke:none"
   id="tspan3871">A </tspan>B <tspan
   style="font-size:18px;fill:#b3b3b3;stroke:none"
   id="tspan3869">A</tspan> B <tspan
   style="font-size:18px;fill:#b3b3b3;stroke:none"
   id="tspan3879">A</tspan></tspan><tspan
         sodipodi:role="line"
         x="85.357948"
         y="308.71609"
         id="tspan2989"
         style="font-size:18px;stroke:none"> 7.0           B <tspan
   style="font-size:18px;fill:#b3b3b3;stroke:none"
   id="tspan3785">A A</tspan> B B B <tspan
   style="font-size:18px;fill:#b3b3b3;stroke:none"
   id="tspan3823">A </tspan>B B B B <tspan
   style="font-size:18px;fill:#b3b3b3;stroke:none"
   id="tspan3829">A A</tspan> B <tspan
   style="font-size:18px;fill:#b3b3b3;stroke:none"
   id="tspan3831">A A</tspan> B B <tspan
   style="font-size:18px;fill:#b3b3b3;stroke:none"
   id="tspan3873">A A</tspan></tspan><tspan
         sodipodi:role="line"
         x="85.357948"
         y="331.21609"
         id="tspan2991"
         style="font-size:18px;stroke:none"> 7.1           <tspan
   style="font-size:18px;fill:#b3b3b3;stroke:none"
   id="tspan3787">A A A</tspan> B <tspan
   style="font-size:18px;fill:#b3b3b3;stroke:none"
   id="tspan3795">A A</tspan> B B B B<tspan
   style="font-size:18px;fill:#b3b3b3;stroke:none"
   id="tspan3821"> A A A</tspan> B <tspan
   style="font-size:18px;fill:#b3b3b3;stroke:none"
   id="tspan3833">A A</tspan> B B <tspan
   style="font-size:18px;fill:#b3b3b3;stroke:none"
   id="tspan3875">A A</tspan></tspan><tspan
         sodipodi:role="line"
         x="85.357948"
         y="353.71609"
         id="tspan2993"
         style="font-size:18px;stroke:none"> 7.5           B <tspan
   style="font-size:18px;fill:#b3b3b3;stroke:none"
   id="tspan3789">A</tspan> B <tspan
   style="font-size:18px;fill:#b3b3b3;stroke:none"
   id="tspan3793">A A A</tspan> B B B <tspan
   style="font-size:18px;fill:#b3b3b3;stroke:none"
   id="tspan3819">A A</tspan> B <tspan
   style="font-size:18px;fill:#b3b3b3;stroke:none"
   id="tspan3835">A A</tspan> B <tspan
   style="font-size:18px;fill:#b3b3b3;stroke:none"
   id="tspan3883">A</tspan> B <tspan
   style="font-size:18px;fill:#b3b3b3;stroke:none"
   id="tspan3877">A A</tspan> B</tspan><tspan
         sodipodi:role="line"
         x="85.357948"
         y="376.21609"
         id="tspan2995"
         style="font-size:18px;stroke:none"> 8.3           <tspan
   style="font-size:18px;fill:#b3b3b3;stroke:none"
   id="tspan3799">A</tspan> B <tspan
   style="font-size:18px;fill:#b3b3b3;stroke:none"
   id="tspan3791">A A A A</tspan> B B<tspan
   style="font-size:18px;fill:#b3b3b3;stroke:none"
   id="tspan3817"> A A A</tspan> B <tspan
   style="font-size:18px;fill:#b3b3b3;stroke:none"
   id="tspan3859">A A</tspan> B <tspan
   style="font-size:18px;fill:#b3b3b3;stroke:none"
   id="tspan3881">A</tspan> B <tspan
   style="font-size:18px;fill:#b3b3b3;stroke:none"
   id="tspan3855">A A</tspan> B</tspan><tspan
         sodipodi:role="line"
         x="85.357948"
         y="398.71609"
         id="tspan2997"
         style="font-size:18px;stroke:none"> 8.6           <tspan
   style="font-size:18px;fill:#b3b3b3;stroke:none"
   id="tspan3797">A</tspan> B B <tspan
   style="font-size:18px;fill:#b3b3b3;stroke:none"
   id="tspan3863">A A</tspan> B <tspan
   style="font-size:18px;fill:#b3b3b3;stroke:none"
   id="tspan3815">A A A A A A </tspan>B B B <tspan
   style="font-size:18px;fill:#b3b3b3;stroke:none"
   id="tspan3857">A</tspan> B B <tspan
   style="font-size:18px;fill:#b3b3b3;stroke:none"
   id="tspan3853">A</tspan> B</tspan><tspan
         sodipodi:role="line"
         x="85.357948"
         y="421.21609"
         id="tspan2999"
         style="font-size:18px;stroke:none"> 8.9           <tspan
   style="font-size:18px;fill:#b3b3b3;stroke:none"
   id="tspan3801">A</tspan> B <tspan
   style="font-size:18px;fill:#b3b3b3;stroke:none"
   id="tspan3803">A</tspan> B B B B B <tspan
   style="font-size:18px;fill:#b3b3b3;stroke:none"
   id="tspan3811">A A A</tspan> B B<tspan
   style="font-size:18px;fill:#b3b3b3;stroke:none"
   id="tspan3837"> A A A</tspan> B <tspan
   style="font-size:18px;fill:#b3b3b3;stroke:none"
   id="tspan3851">A A</tspan> B</tspan><tspan
         sodipodi:role="line"
         x="85.357948"
         y="443.71609"
         id="tspan3001"
         style="font-size:18px;stroke:none"> 9.1           B B <tspan
   style="font-size:18px;fill:#b3b3b3;stroke:none"
   id="tspan3805">A</tspan> B <tspan
   style="font-size:18px;fill:#b3b3b3;stroke:none"
   id="tspan3867">A</tspan> B <tspan
   style="font-size:18px;fill:#b3b3b3;stroke:none"
   id="tspan3865">A</tspan> B <tspan
   style="font-size:18px;fill:#b3b3b3;stroke:none"
   id="tspan3809">A A A</tspan> B <tspan
   style="font-size:18px;fill:#b3b3b3;stroke:none"
   id="tspan3839">A A A A</tspan> B <tspan
   style="font-size:18px;fill:#b3b3b3;stroke:none"
   id="tspan3847">A A A</tspan></tspan><tspan
         sodipodi:role="line"
         x="85.357948"
         y="466.21609"
         id="tspan3003"
         style="font-size:18px;stroke:none"> 9.6           B B B B <tspan
   style="font-size:18px;fill:#b3b3b3;stroke:none"
   id="tspan3807">A A A A A A A</tspan> B <tspan
   style="font-size:18px;fill:#b3b3b3;stroke:none"
   id="tspan3841">A A A A</tspan> B <tspan
   style="font-size:18px;fill:#b3b3b3;stroke:none"
   id="tspan3849">A A A</tspan></tspan></text>
    <path
       style="fill:none;stroke:#000000;stroke-width:0.82186115px;stroke-linecap:butt;stroke-linejoin:miter;stroke-opacity:1"
       d="m 203.11171,92.929154 0,112.638456"
       id="path3009"
       inkscape:connector-curvature="0" />
    <path
       style="fill:none;stroke:#000000;stroke-width:0.89866424px;stroke-linecap:butt;stroke-linejoin:miter;stroke-opacity:1"
       d="m 203.85518,149.76708 418.82836,0"
       id="path3011"
       inkscape:connector-curvature="0" />
    <text
       xml:space="preserve"
       style="font-size:35.35638428px;font-style:normal;font-weight:normal;line-height:125%;letter-spacing:0px;word-spacing:0px;fill:#000000;fill-opacity:1;stroke:none;font-family:Bitstream Vera Sans"
       x="102.27852"
       y="143.40152"
       id="text3885"
       sodipodi:linespacing="125%"
       transform="scale(1.1775535,0.84921834)"><tspan
         sodipodi:role="line"
         id="tspan3887"
         x="102.27852"
         y="143.40152"
         style="font-size:20px"><tspan
   style="font-size:20px;fill:#b3b3b3"
   id="tspan4143">A</tspan> &gt; B</tspan><tspan
         sodipodi:role="line"
         x="102.27852"
         y="168.40152"
         style="font-size:20px"
         id="tspan4147" /><tspan
         sodipodi:role="line"
         x="102.27852"
         y="193.40152"
         style="font-size:20px"
         id="tspan4151" /><tspan
         sodipodi:role="line"
         x="102.27852"
         y="218.40152"
         id="tspan3891"
         style="font-size:20px">B &gt; <tspan
   style="font-size:20px;fill:#b3b3b3"
   id="tspan4145">A</tspan></tspan></text>
    <path
       sodipodi:type="arc"
       style="fill:#b3b3b3;fill-opacity:1"
       id="path3897"
       sodipodi:cx="207.85715"
       sodipodi:cy="114.86218"
       sodipodi:rx="7.1428571"
       sodipodi:ry="7.5"
       d="m 215,114.86218 c 0,4.14214 -3.19796,7.5 -7.14285,7.5 -3.94489,0 -7.14286,-3.35786 -7.14286,-7.5 0,-4.14213 3.19797,-7.5 7.14286,-7.5 3.94489,0 7.14285,3.35787 7.14285,7.5 z"
       transform="matrix(0.9936133,0,0,0.75063232,18.548616,61.456769)" />
    <path
       transform="matrix(0.9936133,0,0,0.75063232,59.13749,74.102143)"
       sodipodi:type="arc"
       style="fill:#b3b3b3;fill-opacity:1"
       id="path3897-7"
       sodipodi:cx="207.85715"
       sodipodi:cy="114.86218"
       sodipodi:rx="7.1428571"
       sodipodi:ry="7.5"
       d="m 215,114.86218 c 0,4.14214 -3.19796,7.5 -7.14285,7.5 -3.94489,0 -7.14286,-3.35786 -7.14286,-7.5 0,-4.14213 3.19797,-7.5 7.14286,-7.5 3.94489,0 7.14285,3.35787 7.14285,7.5 z" />
    <path
       transform="matrix(0.9936133,0,0,0.75063232,84.227265,60.652519)"
       sodipodi:type="arc"
       style="fill:#b3b3b3;fill-opacity:1"
       id="path3897-3"
       sodipodi:cx="207.85715"
       sodipodi:cy="114.86218"
       sodipodi:rx="7.1428571"
       sodipodi:ry="7.5"
       d="m 215,114.86218 c 0,4.14214 -3.19796,7.5 -7.14285,7.5 -3.94489,0 -7.14286,-3.35786 -7.14286,-7.5 0,-4.14213 3.19797,-7.5 7.14286,-7.5 3.94489,0 7.14285,3.35787 7.14285,7.5 z" />
    <path
       transform="matrix(0.9936133,0,0,0.75063232,227.02564,8.1057184)"
       sodipodi:type="arc"
       style="fill:#b3b3b3;fill-opacity:1"
       id="path3897-37"
       sodipodi:cx="207.85715"
       sodipodi:cy="114.86218"
       sodipodi:rx="7.1428571"
       sodipodi:ry="7.5"
       d="m 215,114.86218 c 0,4.14214 -3.19796,7.5 -7.14285,7.5 -3.94489,0 -7.14286,-3.35786 -7.14286,-7.5 0,-4.14213 3.19797,-7.5 7.14286,-7.5 3.94489,0 7.14285,3.35787 7.14285,7.5 z" />
    <path
       transform="matrix(0.9936133,0,0,0.75063232,165.52417,53.546951)"
       sodipodi:type="arc"
       style="fill:#b3b3b3;fill-opacity:1"
       id="path3897-371"
       sodipodi:cx="207.85715"
       sodipodi:cy="114.86218"
       sodipodi:rx="7.1428571"
       sodipodi:ry="7.5"
       d="m 215,114.86218 c 0,4.14214 -3.19796,7.5 -7.14285,7.5 -3.94489,0 -7.14286,-3.35786 -7.14286,-7.5 0,-4.14213 3.19797,-7.5 7.14286,-7.5 3.94489,0 7.14285,3.35787 7.14285,7.5 z" />
    <path
       transform="matrix(0.9936133,0,0,0.75063232,249.36759,69.088185)"
       sodipodi:type="arc"
       style="fill:#b3b3b3;fill-opacity:1"
       id="path3897-6"
       sodipodi:cx="207.85715"
       sodipodi:cy="114.86218"
       sodipodi:rx="7.1428571"
       sodipodi:ry="7.5"
       d="m 215,114.86218 c 0,4.14214 -3.19796,7.5 -7.14285,7.5 -3.94489,0 -7.14286,-3.35786 -7.14286,-7.5 0,-4.14213 3.19797,-7.5 7.14286,-7.5 3.94489,0 7.14285,3.35787 7.14285,7.5 z" />
    <path
       transform="matrix(0.9936133,0,0,0.75063232,146.49623,64.995262)"
       sodipodi:type="arc"
       style="fill:#b3b3b3;fill-opacity:1"
       id="path3897-1"
       sodipodi:cx="207.85715"
       sodipodi:cy="114.86218"
       sodipodi:rx="7.1428571"
       sodipodi:ry="7.5"
       d="m 215,114.86218 c 0,4.14214 -3.19796,7.5 -7.14285,7.5 -3.94489,0 -7.14286,-3.35786 -7.14286,-7.5 0,-4.14213 3.19797,-7.5 7.14286,-7.5 3.94489,0 7.14285,3.35787 7.14285,7.5 z" />
    <path
       transform="matrix(0.9936133,0,0,0.75063232,121.46883,58.100573)"
       sodipodi:type="arc"
       style="fill:#b3b3b3;fill-opacity:1"
       id="path3897-71"
       sodipodi:cx="207.85715"
       sodipodi:cy="114.86218"
       sodipodi:rx="7.1428571"
       sodipodi:ry="7.5"
       d="m 215,114.86218 c 0,4.14214 -3.19796,7.5 -7.14285,7.5 -3.94489,0 -7.14286,-3.35786 -7.14286,-7.5 0,-4.14213 3.19797,-7.5 7.14286,-7.5 3.94489,0 7.14285,3.35787 7.14285,7.5 z" />
    <path
       transform="matrix(0.9936133,0,0,0.75063232,101.31841,72.033308)"
       sodipodi:type="arc"
       style="fill:#b3b3b3;fill-opacity:1"
       id="path3897-2"
       sodipodi:cx="207.85715"
       sodipodi:cy="114.86218"
       sodipodi:rx="7.1428571"
       sodipodi:ry="7.5"
       d="m 215,114.86218 c 0,4.14214 -3.19796,7.5 -7.14285,7.5 -3.94489,0 -7.14286,-3.35786 -7.14286,-7.5 0,-4.14213 3.19797,-7.5 7.14286,-7.5 3.94489,0 7.14285,3.35787 7.14285,7.5 z" />
    <path
       transform="matrix(0.9936133,0,0,0.75063232,183.98157,38.133549)"
       sodipodi:type="arc"
       style="fill:#b3b3b3;fill-opacity:1"
       id="path3897-371-7"
       sodipodi:cx="207.85715"
       sodipodi:cy="114.86218"
       sodipodi:rx="7.1428571"
       sodipodi:ry="7.5"
       d="m 215,114.86218 c 0,4.14214 -3.19796,7.5 -7.14285,7.5 -3.94489,0 -7.14286,-3.35786 -7.14286,-7.5 0,-4.14213 3.19797,-7.5 7.14286,-7.5 3.94489,0 7.14285,3.35787 7.14285,7.5 z" />
    <path
       transform="matrix(0.9936133,0,0,0.75063232,203.20647,20.794989)"
       sodipodi:type="arc"
       style="fill:#b3b3b3;fill-opacity:1"
       id="path3897-371-7-5"
       sodipodi:cx="207.85715"
       sodipodi:cy="114.86218"
       sodipodi:rx="7.1428571"
       sodipodi:ry="7.5"
       d="m 215,114.86218 c 0,4.14214 -3.19796,7.5 -7.14285,7.5 -3.94489,0 -7.14286,-3.35786 -7.14286,-7.5 0,-4.14213 3.19797,-7.5 7.14286,-7.5 3.94489,0 7.14285,3.35787 7.14285,7.5 z" />
    <path
       transform="matrix(0.9936133,0,0,0.75063232,360.61667,62.970852)"
       sodipodi:type="arc"
       style="fill:#b3b3b3;fill-opacity:1"
       id="path3897-6-0"
       sodipodi:cx="207.85715"
       sodipodi:cy="114.86218"
       sodipodi:rx="7.1428571"
       sodipodi:ry="7.5"
       d="m 215,114.86218 c 0,4.14214 -3.19796,7.5 -7.14285,7.5 -3.94489,0 -7.14286,-3.35786 -7.14286,-7.5 0,-4.14213 3.19797,-7.5 7.14286,-7.5 3.94489,0 7.14285,3.35787 7.14285,7.5 z" />
    <path
       transform="matrix(0.9936133,0,0,0.75063232,418.84769,63.416394)"
       sodipodi:type="arc"
       style="fill:#b3b3b3;fill-opacity:1"
       id="path3897-6-0-3"
       sodipodi:cx="207.85715"
       sodipodi:cy="114.86218"
       sodipodi:rx="7.1428571"
       sodipodi:ry="7.5"
       d="m 215,114.86218 c 0,4.14214 -3.19796,7.5 -7.14285,7.5 -3.94489,0 -7.14286,-3.35786 -7.14286,-7.5 0,-4.14213 3.19797,-7.5 7.14286,-7.5 3.94489,0 7.14285,3.35787 7.14285,7.5 z" />
    <path
       transform="matrix(0.9936133,0,0,0.75063232,400.78625,5.7989525)"
       sodipodi:type="arc"
       style="fill:#b3b3b3;fill-opacity:1"
       id="path3897-6-0-1"
       sodipodi:cx="207.85715"
       sodipodi:cy="114.86218"
       sodipodi:rx="7.1428571"
       sodipodi:ry="7.5"
       d="m 215,114.86218 c 0,4.14214 -3.19796,7.5 -7.14285,7.5 -3.94489,0 -7.14286,-3.35786 -7.14286,-7.5 0,-4.14213 3.19797,-7.5 7.14286,-7.5 3.94489,0 7.14285,3.35787 7.14285,7.5 z" />
    <path
       transform="matrix(0.9936133,0,0,0.75063232,378.76264,51.00911)"
       sodipodi:type="arc"
       style="fill:#b3b3b3;fill-opacity:1"
       id="path3897-6-0-2"
       sodipodi:cx="207.85715"
       sodipodi:cy="114.86218"
       sodipodi:rx="7.1428571"
       sodipodi:ry="7.5"
       d="m 215,114.86218 c 0,4.14214 -3.19796,7.5 -7.14285,7.5 -3.94489,0 -7.14286,-3.35786 -7.14286,-7.5 0,-4.14213 3.19797,-7.5 7.14286,-7.5 3.94489,0 7.14285,3.35787 7.14285,7.5 z" />
    <path
       transform="matrix(0.9936133,0,0,0.75063232,269.95416,50.019824)"
       sodipodi:type="arc"
       style="fill:#b3b3b3;fill-opacity:1"
       id="path3897-6-7"
       sodipodi:cx="207.85715"
       sodipodi:cy="114.86218"
       sodipodi:rx="7.1428571"
       sodipodi:ry="7.5"
       d="m 215,114.86218 c 0,4.14214 -3.19796,7.5 -7.14285,7.5 -3.94489,0 -7.14286,-3.35786 -7.14286,-7.5 0,-4.14213 3.19797,-7.5 7.14286,-7.5 3.94489,0 7.14285,3.35787 7.14285,7.5 z" />
    <path
       transform="matrix(0.9936133,0,0,0.75063232,290.19565,56.091319)"
       sodipodi:type="arc"
       style="fill:#b3b3b3;fill-opacity:1"
       id="path3897-6-7-5"
       sodipodi:cx="207.85715"
       sodipodi:cy="114.86218"
       sodipodi:rx="7.1428571"
       sodipodi:ry="7.5"
       d="m 215,114.86218 c 0,4.14214 -3.19796,7.5 -7.14285,7.5 -3.94489,0 -7.14286,-3.35786 -7.14286,-7.5 0,-4.14213 3.19797,-7.5 7.14286,-7.5 3.94489,0 7.14285,3.35787 7.14285,7.5 z" />
    <path
       transform="matrix(0.9936133,0,0,0.75063232,313.37203,56.091319)"
       sodipodi:type="arc"
       style="fill:#b3b3b3;fill-opacity:1"
       id="path3897-6-7-6"
       sodipodi:cx="207.85715"
       sodipodi:cy="114.86218"
       sodipodi:rx="7.1428571"
       sodipodi:ry="7.5"
       d="m 215,114.86218 c 0,4.14214 -3.19796,7.5 -7.14285,7.5 -3.94489,0 -7.14286,-3.35786 -7.14286,-7.5 0,-4.14213 3.19797,-7.5 7.14286,-7.5 3.94489,0 7.14285,3.35787 7.14285,7.5 z" />
    <path
       transform="matrix(0.9936133,0,0,0.75063232,338.83103,63.416394)"
       sodipodi:type="arc"
       style="fill:#b3b3b3;fill-opacity:1"
       id="path3897-6-7-8"
       sodipodi:cx="207.85715"
       sodipodi:cy="114.86218"
       sodipodi:rx="7.1428571"
       sodipodi:ry="7.5"
       d="m 215,114.86218 c 0,4.14214 -3.19796,7.5 -7.14285,7.5 -3.94489,0 -7.14286,-3.35786 -7.14286,-7.5 0,-4.14213 3.19797,-7.5 7.14286,-7.5 3.94489,0 7.14285,3.35787 7.14285,7.5 z" />
    <rect
       style="fill:none;stroke:#000000;stroke-width:0.764741;stroke-opacity:1"
       id="rect4112"
       width="569.26306"
       height="328.89661"
       x="91.167801"
       y="78.04953" />
    <path
       transform="matrix(0.9936133,0,0,0.75063232,39.75751,96.002694)"
       sodipodi:type="arc"
       style="fill:#b3b3b3;fill-opacity:1"
       id="path3897-7-3"
       sodipodi:cx="207.85715"
       sodipodi:cy="114.86218"
       sodipodi:rx="7.1428571"
       sodipodi:ry="7.5"
       d="m 215,114.86218 c 0,4.14214 -3.19796,7.5 -7.14285,7.5 -3.94489,0 -7.14286,-3.35786 -7.14286,-7.5 0,-4.14213 3.19797,-7.5 7.14286,-7.5 3.94489,0 7.14285,3.35787 7.14285,7.5 z" />
    <path
       style="fill:none;stroke:#000000;stroke-width:0.65676147px;stroke-linecap:butt;stroke-linejoin:miter;stroke-opacity:1"
       d="m 224.55396,147.91523 21.23924,34.30673 19.75744,-22.27709 25.19074,-14.25734 17.7817,12.47517 20.25137,-13.8118 23.70893,8.01976 20.74531,-12.47518 17.7817,-16.03951 19.75745,-17.37613 22.72105,-12.475174 23.70893,64.158034 17.28776,-22.72264 23.70893,8.4653 21.23925,-2.67325 27.66041,8.91084 20.25138,-0.89109 15.80596,-11.58409 24.20286,-46.336355 18.27563,57.474905"
       id="path4369"
       inkscape:connector-curvature="0" />
  </g>
</svg>
